<svg xmlns="http://www.w3.org/2000/svg" xmlns:xlink="http://www.w3.org/1999/xlink" width="500" zoomAndPan="magnify" viewBox="0 0 375 374.999991" height="500" preserveAspectRatio="xMidYMid meet" version="1.0"><defs><clipPath id="26c0efd8eb"><path d="M 0 0 L 168.007812 0 L 168.007812 168.007812 L 0 168.007812 Z M 0 0 " clip-rule="nonzero"/></clipPath><clipPath id="c97aaf9e9c"><path d="M 84.003906 0 C 37.609375 0 0 37.609375 0 84.003906 C 0 130.398438 37.609375 168.007812 84.003906 168.007812 C 130.398438 168.007812 168.007812 130.398438 168.007812 84.003906 C 168.007812 37.609375 130.398438 0 84.003906 0 Z M 84.003906 0 " clip-rule="nonzero"/></clipPath><clipPath id="c32ed7600f"><path d="M 0 0 L 168.007812 0 L 168.007812 168.007812 L 0 168.007812 Z M 0 0 " clip-rule="nonzero"/></clipPath><clipPath id="62acfbe92d"><path d="M 84.003906 0 C 37.609375 0 0 37.609375 0 84.003906 C 0 130.398438 37.609375 168.007812 84.003906 168.007812 C 130.398438 168.007812 168.007812 130.398438 168.007812 84.003906 C 168.007812 37.609375 130.398438 0 84.003906 0 Z M 84.003906 0 " clip-rule="nonzero"/></clipPath><clipPath id="0fd9375ac0"><rect x="0" width="169" y="0" height="169"/></clipPath><clipPath id="8ed243cfaa"><path d="M 206.992188 0 L 375 0 L 375 168.007812 L 206.992188 168.007812 Z M 206.992188 0 " clip-rule="nonzero"/></clipPath><clipPath id="0963c15c2b"><path d="M 290.996094 0 C 244.601562 0 206.992188 37.609375 206.992188 84.003906 C 206.992188 130.398438 244.601562 168.007812 290.996094 168.007812 C 337.390625 168.007812 375 130.398438 375 84.003906 C 375 37.609375 337.390625 0 290.996094 0 Z M 290.996094 0 " clip-rule="nonzero"/></clipPath><clipPath id="f35977ff0e"><path d="M 0.992188 0 L 169 0 L 169 168.007812 L 0.992188 168.007812 Z M 0.992188 0 " clip-rule="nonzero"/></clipPath><clipPath id="6e24773f97"><path d="M 84.996094 0 C 38.601562 0 0.992188 37.609375 0.992188 84.003906 C 0.992188 130.398438 38.601562 168.007812 84.996094 168.007812 C 131.390625 168.007812 169 130.398438 169 84.003906 C 169 37.609375 131.390625 0 84.996094 0 Z M 84.996094 0 " clip-rule="nonzero"/></clipPath><clipPath id="a6073ef0a3"><rect x="0" width="169" y="0" height="169"/></clipPath><clipPath id="1ca5a1306d"><path d="M 103.496094 180.574219 L 271.503906 180.574219 L 271.503906 348.582031 L 103.496094 348.582031 Z M 103.496094 180.574219 " clip-rule="nonzero"/></clipPath><clipPath id="d3754e5ba5"><path d="M 187.5 180.574219 C 141.105469 180.574219 103.496094 218.183594 103.496094 264.578125 C 103.496094 310.972656 141.105469 348.582031 187.5 348.582031 C 233.894531 348.582031 271.503906 310.972656 271.503906 264.578125 C 271.503906 218.183594 233.894531 180.574219 187.5 180.574219 Z M 187.5 180.574219 " clip-rule="nonzero"/></clipPath><clipPath id="b52ecb0c83"><path d="M 0.496094 0.574219 L 168.503906 0.574219 L 168.503906 168.582031 L 0.496094 168.582031 Z M 0.496094 0.574219 " clip-rule="nonzero"/></clipPath><clipPath id="9f393204f3"><path d="M 84.5 0.574219 C 38.105469 0.574219 0.496094 38.183594 0.496094 84.578125 C 0.496094 130.972656 38.105469 168.582031 84.5 168.582031 C 130.894531 168.582031 168.503906 130.972656 168.503906 84.578125 C 168.503906 38.183594 130.894531 0.574219 84.5 0.574219 Z M 84.5 0.574219 " clip-rule="nonzero"/></clipPath><clipPath id="b89940f7c6"><rect x="0" width="169" y="0" height="169"/></clipPath></defs><g clip-path="url(#26c0efd8eb)"><g clip-path="url(#c97aaf9e9c)"><g transform="matrix(1, 0, 0, 1, 0, 0)"><g clip-path="url(#0fd9375ac0)"><g clip-path="url(#c32ed7600f)"><g clip-path="url(#62acfbe92d)"><path fill="#ffffff" d="M 0 0 L 168.007812 0 L 168.007812 168.007812 L 0 168.007812 Z M 0 0 " fill-opacity="1" fill-rule="nonzero"/></g></g></g></g></g></g><g clip-path="url(#8ed243cfaa)"><g clip-path="url(#0963c15c2b)"><g transform="matrix(1, 0, 0, 1, 206, 0)"><g clip-path="url(#a6073ef0a3)"><g clip-path="url(#f35977ff0e)"><g clip-path="url(#6e24773f97)"><path fill="#ffffff" d="M 0.992188 0 L 169 0 L 169 168.007812 L 0.992188 168.007812 Z M 0.992188 0 " fill-opacity="1" fill-rule="nonzero"/></g></g></g></g></g></g><g clip-path="url(#1ca5a1306d)"><g clip-path="url(#d3754e5ba5)"><g transform="matrix(1, 0, 0, 1, 103, 180)"><g clip-path="url(#b89940f7c6)"><g clip-path="url(#b52ecb0c83)"><g clip-path="url(#9f393204f3)"><path fill="#ffffff" d="M 0.496094 0.574219 L 168.503906 0.574219 L 168.503906 168.582031 L 0.496094 168.582031 Z M 0.496094 0.574219 " fill-opacity="1" fill-rule="nonzero"/></g></g></g></g></g></g></svg>